<?xml version="1.0" encoding="UTF-8"?>
<svg width="140px" height="41px" viewBox="0 0 140 41" version="1.1" xmlns="http://www.w3.org/2000/svg" xmlns:xlink="http://www.w3.org/1999/xlink">
    <!-- Generator: Sketch 52.2 (67145) - http://www.bohemiancoding.com/sketch -->
    <title>logo</title>
    <desc>Created with Sketch.</desc>
    <g id="Symbols" stroke="none" stroke-width="1" fill="none" fill-rule="evenodd">
        <g id="UI/iFrame/Header" transform="translate(-24.000000, -13.000000)" fill-rule="nonzero">
            <g id="logo" transform="translate(24.000000, 13.000000)">
                <path d="M52.8963227,20.4791846 C52.8963227,31.6997282 41.0916813,40.7960513 26.5310398,40.7960513 C11.9695538,40.7960513 0.165545817,31.6997282 0.165545817,20.4791846 C0.165545817,9.25864103 11.9695538,0.162317949 26.5310398,0.162317949 C41.0916813,0.162317949 52.8963227,9.25885128 52.8963227,20.4791846 Z" id="Shape" fill="#80BB3D"></path>
                <path d="M49.9507052,20.441759 C49.9359243,10.8418718 39.4383347,3.07563077 26.5042231,3.09539487 C22.9981992,3.10065128 19.6735578,3.67801538 16.6892988,4.70743077 C14.1573347,4.39667179 11.6682351,5.38761026 11.6682351,5.38761026 C11.6682351,5.38761026 13.4835378,8.30786154 16.2091315,9.37533333 C18.1249442,10.1257385 20.2873865,9.49433846 20.665988,9.13795385 C20.6664104,9.13774359 19.9222988,7.626 17.5197729,6.56756923 C16.5900558,6.15841026 15.3053865,5.78941026 13.8794542,5.58924615 C14.8397888,5.67145641 15.6546375,5.56801026 17.5940996,6.18301026 C20.2941434,7.03938462 21.007004,8.64427179 21.007004,8.64427179 C21.1617809,7.13231795 20.1448566,6.06442564 19.1439801,5.49189744 C21.4447291,4.89434872 23.9226375,4.56592821 26.50549,4.56214359 C38.6260199,4.54343077 48.4629044,11.6551436 48.4762072,20.4459641 C48.4806414,23.1668923 47.5429004,25.7299179 45.8865976,27.9727231 C45.8576693,27.9443385 44.7778207,26.8446974 43.4564104,25.8831949 C44.0508127,22.3403744 41.4341753,19.0475487 38.586745,17.4226872 C39.8923187,13.2867333 35.8805777,9.06205128 28.6126096,8.91087692 C27.5308606,8.90246667 26.0506614,8.95797436 25.0871594,9.06121026 L25.4908884,6.50575385 L24.9152789,6.50659487 C22.8985339,6.52299487 22.1491434,7.80913333 21.9314422,8.31395897 L21.15249,9.80614872 C16.6318645,11.0552821 14.1520558,13.1914872 13.9303426,13.3819795 C13.4073108,13.8317179 13.515,14.0257846 14.4466175,13.6420667 C16.1094661,12.956841 18.044494,12.3414205 20.0726414,11.8740205 L13.9740518,23.0483077 C10.7112789,22.6765744 7.30808765,23.0577692 5.58632669,25.2597846 C4.93829084,23.7608667 4.58629482,22.1669128 4.58397211,20.5124051 C4.57594821,15.4204154 7.86596016,10.8818205 12.991757,7.96030769 C11.6946295,7.11844103 10.5201833,7.80219487 10.1510837,8.06585641 C10.1409482,8.07300513 10.1411594,8.07342564 10.1308127,8.07952308 C5.79220319,11.2415692 3.10356175,15.6453897 3.11095219,20.5126154 C3.11454183,22.7882205 3.70767729,24.959959 4.7818247,26.9498256 C4.6502749,27.6358923 4.7269243,28.4443282 5.33969721,29.2241692 C6.16404781,30.2729282 7.81486056,30.7365436 9.74524303,30.0641436 C12.3509004,29.1577282 14.3537092,26.3140103 14.9903426,25.2824923 C13.1085259,24.9757282 12.3642032,25.6573795 12.0985697,26.0104 C11.3308088,27.0295128 10.2021833,28.1741487 9.01950199,28.6793949 C6.59860558,29.7130154 5.03225498,27.5320256 6.94405578,25.7765949 C8.23843825,24.5875949 10.80651,24.3401231 13.1226733,24.6309077 C13.1226733,24.6309077 13.1796853,24.6311179 13.1794741,24.6311179 C16.10651,25.0160974 18.3635498,25.8977026 18.8540637,26.0966051 C18.4049363,28.725441 18.0888367,30.4053897 18.0888367,30.4053897 L18.9509841,30.4161128 C21.7677968,30.4148513 22.0152709,28.3202769 22.0152709,28.3202769 C22.019494,28.3240615 22.1601235,27.5833282 22.1601235,27.5833282 C24.7429761,28.8471795 27.2550916,30.1970256 27.3828406,30.2718769 C28.0439681,30.6339385 29.0002908,30.6131231 29.1483108,29.6564564 L30.2425179,22.2400821 C33.1070518,22.0737692 35.9206972,20.9627744 37.422012,19.3404359 C38.7288526,20.361441 39.9381394,21.9886154 40.1687211,23.9574564 C38.5696414,23.2655026 36.7610956,22.8523487 34.9044064,23.1389282 C30.6031713,23.8022872 29.0991116,28.2073692 31.4644741,30.7066872 C33.2390239,32.5819641 35.7842908,32.7859128 38.5219203,31.7556564 C39.9666454,31.2119333 41.3898327,30.1463538 42.361992,28.6400769 C42.1571713,28.4331846 41.7686454,28.0688103 41.3275418,27.7982103 C40.1195219,27.0578974 39.224012,27.8968205 38.9638685,28.190759 C38.1973745,29.1465846 37.1481434,29.8452667 36.0503466,30.1125026 C31.0472311,31.3288359 30.57551,24.8056308 35.7038406,24.6098821 C37.3255139,24.5478564 38.7535578,25.2370769 40.010988,26.1439128 C40.0105657,26.1445436 40.0101434,26.1458051 40.0101434,26.1464359 C41.3085378,27.1174 43.0915339,28.9157231 43.9813426,29.5330359 C45.8779402,30.8488205 47.7259721,30.2693538 47.7259721,30.2693538 C47.7259721,30.2693538 47.406494,29.7451846 46.8752271,29.0774103 C48.8353825,26.5318359 49.9551394,23.5834103 49.9507052,20.441759 Z M19.2069044,24.1103128 C18.2349562,23.7991333 16.4156414,23.4227744 16.0370398,23.3477128 L20.8454701,14.5118974 C20.3435538,17.4556974 19.72149,21.0948154 19.2069044,24.1103128 Z M30.4730996,20.6789282 L30.9156813,17.6802513 C27.593996,17.7056923 27.1167849,19.9676308 27.0620956,20.3252769 C25.4727291,19.5620462 26.8222231,17.917841 29.0577251,17.4962769 C31.5333108,17.0290872 33.8830478,17.5801692 35.2999004,18.1596359 C34.5032112,19.6200769 32.7421753,20.4903282 30.4730996,20.6789282 Z M35.8761434,16.3817077 C34.6170239,16.0534974 32.9385498,15.7561949 31.1882829,15.8184308 L31.7759283,11.8357538 C28.2354861,11.241359 28.0427012,13.612 28.0427012,13.612 C27.9168526,14.4626974 27.7730558,15.4345026 27.6199681,16.4662308 C24.3327012,17.7338667 24.0191355,20.6551692 26.8308805,21.7926564 C26.5468765,23.7087231 26.1064064,26.6746 26.0998606,26.6699744 C25.1855578,26.2725897 23.3478725,25.5249179 22.5307012,25.2246718 L24.7626135,11.1002769 C34.3287968,10.1129128 36.1977331,14.4986513 35.8761434,16.3817077 Z M42.6100996,31.3004513 L42.6062988,31.3033949 C38.622008,34.4231795 32.8542988,36.3873949 26.5542669,36.3968564 C20.2975219,36.4063179 14.6499602,34.4971897 10.6470876,31.4747538 C10.2518048,31.1766103 9.2494502,30.5002154 7.98948606,31.1101692 C12.2782629,35.2253077 19.0018725,37.8709641 26.5576454,37.8594 C34.1400239,37.8480462 40.8765139,35.1628615 45.15051,31.0092462 C43.9452351,30.4152718 42.8926255,31.0897744 42.6100996,31.3004513 Z" id="Shape" fill="#FFFFFF"></path>
                <path d="M108.034386,4.21957692 L108.034386,4.21936538 L110.343739,4.21936538 L106.316647,14.3112308 C106.169327,14.6865 106.013092,15.0395577 105.857494,15.3701923 L105.046811,17.0749808 C104.35479,18.5047692 103.026153,19.2921154 101.284003,19.2921154 C100.246184,19.2921154 99.3219335,19.1943846 98.4257033,18.9500577 L98.793578,16.2114808 L100.321754,16.2459615 C100.994033,16.2459615 101.772238,16.1315192 102.152,15.286 C102.152,15.286 102.215258,15.1353846 102.300381,14.9401346 C102.067302,14.4434423 99.2257724,8.38603846 97.2696471,4.21957692 L101.525573,4.21957692 C102.650637,6.81663462 103.952315,9.82069231 104.164379,10.3116731 C104.298113,9.91715385 104.950013,7.99871154 105.646916,5.94192308 C106.137061,4.77 106.65735,4.21957692 108.034386,4.21957692 Z M92.1387187,9.53532692 C96.1205959,9.53532692 97.902867,11.9303654 97.9026547,14.3034038 C97.9026547,16.5025577 96.4702148,19.0712692 92.4363299,19.0712692 L85.8585269,19.0712692 L85.8585269,6.49298077 C85.8585269,5.26775 86.6269668,4.22317308 88.2952455,4.18869231 L96.3825448,4.18869231 L96.3825448,5.49092308 L96.380422,5.48648077 C96.380422,6.58880769 95.748688,7.20332692 94.6278696,7.25176923 L89.8900767,7.25176923 L89.8900767,9.53532692 C90.2505217,9.53532692 92.1387187,9.53532692 92.1387187,9.53532692 Z M91.0306368,16.0081923 C93.3854169,16.0081923 93.6571304,15.0112115 93.6569182,14.2608846 C93.6569182,13.3445 92.9086445,12.5960769 91.5201458,12.5986154 C91.5201458,12.5986154 90.2373606,12.5986154 89.8900767,12.5986089 L89.8900767,16.0081923 C90.2231381,16.0081923 91.0306368,16.0081923 91.0306368,16.0081923 Z M129.162238,13.2704615 L133.026514,13.2704615 C132.832494,12.8046538 131.317691,9.16703846 131.001824,8.40994231 C130.712279,9.17613462 129.334606,12.8141731 129.162238,13.2704615 Z M119.621696,11.48275 C120.624064,12.0240769 121.569118,13.1864808 122.432233,14.9553654 L123.481514,17.0944423 L127.964363,6.01278846 L127.964363,6.01321154 C128.468944,4.76661538 128.979043,4.18805769 130.396199,4.18805769 L133.171923,4.18805769 L139.80598,19.0706346 L135.454954,19.0706346 C135.454954,19.0706346 134.358972,16.4369808 134.263235,16.2055577 L128.047788,16.2055577 C127.957358,16.4473462 126.962632,19.0706346 126.962632,19.0706346 L119.964946,19.0706346 C119.964946,19.0706346 118.418726,15.7257885 118.418726,15.7251538 C117.563465,13.8617115 116.467059,12.9165577 115.15689,12.9165577 C115.15689,12.9165577 114.782647,12.9165577 114.554662,12.9165577 C114.554662,13.3005 114.554662,19.0706346 114.554662,19.0706346 L110.522688,19.0706346 L110.522688,6.43480769 C110.545189,5.23475 111.312568,4.22232692 112.9541,4.18826923 L114.554662,4.18826923 C114.554662,4.18826923 114.554662,9.4725 114.554662,9.85432692 C114.818946,9.85432692 115.390606,9.85432692 115.390606,9.85432692 C116.343302,9.85432692 116.962936,9.40057692 117.461997,8.33717308 L118.399409,6.36267308 C119.091854,4.93288462 120.428558,4.14617308 122.162642,4.14617308 C122.573609,4.14617308 123.005379,4.18742308 123.517389,4.27605769 L123.770847,4.31794231 L123.364974,7.33575 L123.269238,7.33575 C122.595685,7.33575 121.857176,7.45019231 121.478263,8.29528846 C121.478263,8.29528846 120.946299,9.50507692 120.945026,9.5055 C120.593921,10.2989808 120.074056,11.0636923 119.621696,11.48275 Z M82.3029003,11.1066346 C83.5109642,11.8089423 84.6377263,12.8228462 84.6379386,14.7639231 C84.6379386,17.5985385 82.2725448,19.11675 78.1522634,19.2242115 C77.4857161,19.2413462 76.6410691,19.14975 76.6410691,19.14975 C75.4673939,19.0266346 74.8736573,17.9628077 74.6076752,17.4130192 C74.2308849,16.6347692 73.9924987,15.7579423 73.950468,15.5986538 C74.9846777,15.83875 76.1367008,15.9724423 77.2227059,15.9724423 C79.2045166,16.0073462 80.2109182,15.4668654 80.2109182,14.4694615 C80.2109182,13.4657115 79.3318824,13.0929808 76.9686113,13.0929808 L75.7915396,13.0929808 L75.7915396,10.0519038 L77.2021151,10.0519038 C80.1260077,10.0519038 80.1260077,8.95232692 80.1260077,8.59123077 C80.1260077,7.79542308 79.1711893,7.13267308 76.9686113,7.31988462 C75.9006496,7.41084615 73.9659642,7.98707692 73.9659642,7.98707692 L73.6193171,4.836 C75.4973248,4.32555769 77.1070153,4.06811538 78.5122839,4.06811538 C81.5174783,4.06811538 84.552179,5.22565385 84.552179,7.8115 C84.552179,9.48476923 83.3250102,10.6196731 82.3029003,11.1066346 Z M67.637798,4.18911538 L74.2731279,19.0710577 L69.9214655,19.0710577 C69.9214655,19.0710577 68.8254834,16.4374038 68.7286854,16.2064038 L62.5142992,16.2064038 C62.423445,16.4477692 61.4280818,19.0710577 61.4280818,19.0710577 L57.1490179,19.0710577 L62.506445,5.83086538 C62.9872506,4.71521154 63.514757,4.18911538 64.8584655,4.18911538 L67.637798,4.18911538 Z M63.6291739,13.2704615 L67.4932379,13.2704615 C67.2996419,12.8046538 65.7850512,9.16703846 65.4693964,8.40994231 C65.178578,9.17634615 63.8017545,12.8141731 63.6291739,13.2704615 Z M71.2462813,28.4631538 C72.9964987,29.0768269 74.0355908,30.4484423 74.0355908,32.2253654 C74.0355908,33.2695192 73.650734,36.6750769 68.6983299,36.6750769 L61.4225627,36.6750769 L61.4225627,23.9089423 C61.4983453,22.7668462 62.2614783,21.8263462 63.8429361,21.7933462 L67.9092992,21.7933462 C71.3577263,21.7933462 72.9281458,23.7805385 72.9281458,25.6266346 C72.9281458,26.7651346 72.306601,27.7970192 71.2462813,28.4631538 Z M65.4543248,24.8553654 L65.4543248,27.5431731 C65.7814425,27.5431731 67.1436189,27.5431731 67.1436189,27.5431731 C68.3593248,27.5431731 68.7900332,26.8078654 68.7900332,26.1783269 C68.7900332,25.56825 68.3593248,24.8553654 67.1436189,24.8553654 C67.1436189,24.8553654 65.7814425,24.8553654 65.4543248,24.8553654 Z M67.2928491,33.6122115 C69.3827084,33.6122115 69.7917647,33.0336538 69.7917647,32.0345577 C69.7917647,30.9810962 68.753734,30.6058269 67.7829949,30.6058269 C67.7829949,30.6058269 65.8011841,30.6058269 65.4543248,30.6058269 L65.4543248,33.6122115 C65.7871739,33.6122115 67.2928491,33.6122115 67.2928491,33.6122115 Z M123.684875,21.8166154 L130.319992,36.6989808 L125.968542,36.6989808 C125.968542,36.6989808 124.872985,34.0653269 124.774913,33.8339038 L118.562013,33.8339038 C118.470734,34.0752692 117.475371,36.6989808 117.475371,36.6989808 L113.196307,36.6989808 L118.553097,23.4583654 C119.034327,22.3433462 119.561834,21.8166154 120.904905,21.8166154 L123.684875,21.8166154 Z M119.675826,30.8981731 L123.540739,30.8981731 C123.347143,30.4319423 121.831916,26.7951731 121.516473,26.0374423 C121.22523,26.8038462 119.849043,30.4420962 119.675826,30.8981731 Z M100.113512,21.8170385 L100.113512,21.8168269 L102.423714,21.8168269 L98.3968338,31.9082692 C98.2484527,32.28375 98.0930665,32.6365962 97.9366189,32.9672308 L97.1267852,34.6720192 C96.4341279,36.1018077 95.1057033,36.8887308 93.3635524,36.8887308 C92.325734,36.8887308 91.4019079,36.7912115 90.5050409,36.5468846 L90.8729156,33.8085192 L92.4010921,33.843 C93.0737954,33.843 93.8517877,33.7285577 94.2319744,32.88325 C94.2319744,32.88325 94.2945959,32.7324231 94.3801432,32.5371731 C94.1468517,32.0406923 90.9486982,25.879 89.0282353,21.7867885 L93.2083785,21.7867885 C94.3130639,24.3373077 96.0316522,27.4177308 96.2443529,27.9085 C96.3774501,27.5141923 97.0297749,25.5955385 97.7264655,23.5389615 C98.2170358,22.36725 98.7373248,21.8170385 100.113512,21.8170385 Z M88.1071688,24.9643077 L88.1071688,24.9638846 L88.0114322,24.9638846 C87.3378798,24.9638846 86.5995831,25.0781154 86.219821,25.923 C86.219821,25.923 85.6876445,27.1325769 85.6867954,27.1334231 C85.3356905,27.9269038 84.8162506,28.6914038 84.3630409,29.11025 C85.3658338,29.6522115 86.3108875,30.8144038 87.1752762,32.5832885 L89.1935985,36.6987692 L84.7071407,36.6987692 C84.7071407,36.6987692 83.161133,33.3539231 83.161133,33.3535 C82.3056598,31.4904808 81.2090409,30.5453269 79.8990844,30.5453269 C79.8990844,30.5453269 79.5244169,30.5453269 79.2957954,30.5453269 C79.2957954,30.9290577 79.2957954,36.6989808 79.2957954,36.6989808 L75.263821,36.6989808 L75.263821,24.0923462 C75.2759207,22.8793846 76.0428747,21.8517308 77.6973555,21.8170385 L79.2957954,21.8170385 C79.2957954,21.8170385 79.2957954,27.1008462 79.2957954,27.48225 C79.5611407,27.48225 80.1332251,27.48225 80.1332251,27.48225 C81.0857084,27.48225 81.7047059,27.0287115 82.2037673,25.9661538 L83.1407545,23.9912308 C83.8338363,22.5614423 85.1703274,21.7745192 86.9041995,21.7745192 C87.3151662,21.7745192 87.7471483,21.8155577 88.2604322,21.9046154 L88.5126164,21.9460769 L88.1071688,24.9643077 Z M112.972992,34.8344808 C112.632501,35.7491731 111.980389,36.5018269 110.930471,36.7243654 C110.328031,36.8515 109.846801,36.8705385 109.169427,36.8705385 C106.029013,36.8705385 104.131263,35.4900385 103.092171,34.3312308 C101.883471,32.9841538 101.162581,31.1509615 101.162581,29.4269231 C101.162581,27.2432115 101.985363,25.2500962 103.479151,23.8152308 C104.965084,22.3871346 107.026286,21.6010577 109.284481,21.6010577 C110.654724,21.6010577 112.053836,21.9096923 113.777944,22.5969808 L113.777944,26.2938269 L113.622345,26.2037115 C112.017325,25.2697692 110.711189,24.8718654 109.254762,24.8718654 C106.574775,24.8718654 105.036621,26.9347885 105.036621,29.2540962 C105.036621,31.6254423 106.521918,33.5938077 109.338611,33.5938077 C111.200061,33.6359038 112.507258,33.0700385 113.598995,32.6437885 C113.599844,32.6395577 113.313696,33.9191538 112.972992,34.8344808 Z" id="Combined-Shape" fill="#4B721D"></path>
            </g>
        </g>
    </g>
</svg>