<svg xmlns="http://www.w3.org/2000/svg" viewBox="0 0 62 62"><path d="M61.177 44.788a4.03 4.03 0 0 0-.207-.39c-1.058-1.873-3.081-4.173-6.066-6.9l-.063-.062-.032-.029-.032-.032h-.032c-1.355-1.272-2.213-2.122-2.573-2.56-.657-.834-.805-1.677-.445-2.53.254-.645 1.208-2.007 2.859-4.088a215.26 215.26 0 0 0 2.064-2.655c3.663-4.785 5.251-7.845 4.764-9.175l-.189-.312c-.127-.188-.455-.358-.984-.515-.53-.156-1.207-.182-2.033-.078l-9.147.063c-.148-.053-.36-.047-.635.015l-.413.094-.159.078-.126.095c-.106.061-.222.17-.349.327a2.128 2.128 0 0 0-.317.547 50.747 50.747 0 0 1-3.398 7.02 65.965 65.965 0 0 1-2.16 3.357c-.657.946-1.207 1.645-1.651 2.09-.445.448-.847.808-1.207 1.079-.36.271-.635.384-.825.342-.191-.04-.37-.084-.541-.124a2.109 2.109 0 0 1-.714-.764c-.18-.323-.302-.729-.365-1.22a12.96 12.96 0 0 1-.111-1.261c-.01-.354-.005-.856.016-1.499a45.87 45.87 0 0 0 .032-1.312c0-.79.016-1.65.047-2.575.032-.927.058-1.66.08-2.201.021-.54.031-1.112.031-1.716 0-.603-.037-1.078-.111-1.421a4.758 4.758 0 0 0-.333-.998 1.685 1.685 0 0 0-.651-.749 3.668 3.668 0 0 0-1.064-.422c-1.122-.249-2.552-.385-4.288-.406-3.938-.042-6.468.209-7.591.75a4.24 4.24 0 0 0-1.207.936c-.382.456-.434.708-.159.749 1.271.186 2.17.634 2.7 1.342l.19.374c.149.271.297.751.445 1.437.148.686.243 1.445.285 2.279.106 1.517.106 2.819 0 3.902a45.418 45.418 0 0 1-.302 2.528c-.095.603-.238 1.091-.429 1.467-.19.374-.317.603-.381.686a.586.586 0 0 1-.159.158 2.425 2.425 0 0 1-.857.155c-.297 0-.657-.147-1.08-.437-.423-.291-.862-.693-1.318-1.202-.455-.51-.969-1.221-1.541-2.139a36.955 36.955 0 0 1-1.778-3.246l-.508-.905a80.554 80.554 0 0 1-1.302-2.545 47.747 47.747 0 0 1-1.461-3.232c-.169-.436-.423-.768-.762-.998l-.159-.094a2.252 2.252 0 0 0-.508-.265 3.497 3.497 0 0 0-.731-.203l-8.703.063c-.889 0-1.493.197-1.81.593l-.127.188c-.064.105-.096.273-.096.499 0 .229.064.512.191.844a102.54 102.54 0 0 0 4.144 8.49c1.493 2.726 2.79 4.921 3.891 6.585a78.496 78.496 0 0 0 3.367 4.714c1.143 1.476 1.9 2.423 2.27 2.84.371.417.662.728.873.936l.794.749c.509.5 1.254 1.099 2.239 1.795a38.237 38.237 0 0 0 3.271 2.06c1.197.678 2.589 1.228 4.177 1.655 1.588.427 3.134.597 4.637.516h3.653c.74-.064 1.301-.291 1.683-.688l.126-.155c.085-.125.164-.32.238-.578.074-.259.111-.547.111-.858-.022-.895.048-1.701.206-2.419.159-.718.339-1.259.541-1.622.202-.365.43-.673.683-.922.254-.249.435-.399.541-.452.105-.054.19-.088.253-.11.508-.166 1.106-.005 1.795.483a10.484 10.484 0 0 1 1.937 1.813 55.685 55.685 0 0 0 2.175 2.418c.847.895 1.588 1.562 2.223 1.999l.635.374c.424.249.975.479 1.652.687.677.207 1.269.259 1.778.155l8.13-.124c.804 0 1.43-.131 1.874-.391.445-.258.709-.546.794-.857.085-.313.09-.667.016-1.063-.073-.395-.147-.671-.221-.827z"/></svg>