<?xml version="1.0" encoding="UTF-8"?>
<svg width="75px" height="38px" viewBox="0 0 75 38" version="1.1" xmlns="http://www.w3.org/2000/svg" xmlns:xlink="http://www.w3.org/1999/xlink">
    <!-- Generator: Sketch 52.2 (67145) - http://www.bohemiancoding.com/sketch -->
    <title>logo</title>
    <desc>Created with Sketch.</desc>
    <g id="Symbols" stroke="none" stroke-width="1" fill="none" fill-rule="evenodd">
        <g id="UI/iFrame/Footer" transform="translate(-24.000000, -14.000000)">
            <g id="Footer">
                <g id="left" transform="translate(24.000000, 14.000000)">
                    <g id="logo">
                        <path d="M28.1697174,7 L72.8302826,7 C74.0285844,7 75,7.97141556 75,9.16971739 L75,35.8302826 C75,37.0285844 74.0285844,38 72.8302826,38 L28.1697174,38 C26.9714156,38 26,37.0285844 26,35.8302826 L26,9.16971739 C26,7.97141556 26.9714156,7 28.1697174,7 Z" id="Rectangle-2-Copy" fill="#4740E3"></path>
                        <rect id="Mask" fill="#00E0B4" x="0" y="0" width="49" height="31" rx="2.16971739"></rect>
                        <path d="M28.17,7 L49,7 L49,28.83 C49,30.0284579 48.0284579,31 46.83,31 L26,31 L26,9.17 C26,7.97154209 26.9715421,7 28.17,7 Z" id="Rectangle" fill="#00B8C0" fill-rule="nonzero"></path>
                        <path d="M20.7318212,14.484058 C20.7318212,14.0985488 20.9175077,13.9057971 21.2888864,13.9057971 L21.9138864,13.9057971 C22.2852651,13.9057971 22.4709516,14.0985488 22.4709516,14.484058 L22.4709516,23.1028986 C22.4709516,23.4884077 22.2852651,23.6811594 21.9138864,23.6811594 L21.2888864,23.6811594 C20.9175077,23.6811594 20.7318212,23.4884077 20.7318212,23.1028986 L20.7318212,14.484058 Z M28.9636424,18.8347826 C28.9636424,18.1096582 29.0881882,17.4350273 29.3372837,16.8108696 C29.5863791,16.1867119 29.9328431,15.647466 30.3766859,15.1931159 C30.8205287,14.7387658 31.3458857,14.3830931 31.9527728,14.126087 C32.5596599,13.8690808 33.2254141,13.7405797 33.9500554,13.7405797 C34.3486082,13.7405797 34.7177168,13.772705 35.0573924,13.8369565 C35.397068,13.9012081 35.700507,13.9815213 35.9677185,14.0778986 C36.23493,14.1742758 36.4659059,14.2729464 36.6606533,14.373913 C36.8554006,14.4748797 37.0025912,14.5620769 37.1022293,14.6355072 C37.3830279,14.8557982 37.4237883,15.1219791 37.224512,15.434058 L36.9799467,15.8195652 C36.8803086,15.9756046 36.7670851,16.0650965 36.6402728,16.0880435 C36.5134606,16.1109905 36.3640056,16.0719812 36.1919033,15.9710145 C35.9835689,15.8425114 35.7027746,15.709421 35.349512,15.5717391 C34.9962493,15.4340573 34.5614711,15.3652174 34.0451641,15.3652174 C33.5197992,15.3652174 33.0533183,15.4547093 32.6457076,15.6336957 C32.2380969,15.8126821 31.8961619,16.0559163 31.6198924,16.3634058 C31.3436229,16.6708953 31.1330272,17.0311574 30.9880989,17.4442029 C30.8431707,17.8572484 30.7707076,18.2932344 30.7707076,18.7521739 C30.7707076,19.2661861 30.854493,19.7365921 31.0220663,20.1634058 C31.1896396,20.5902195 31.4183511,20.9550709 31.7082076,21.257971 C31.9980641,21.5608711 32.3377346,21.7972214 32.7272293,21.967029 C33.116724,22.1368366 33.5379155,22.2217391 33.9908163,22.2217391 C34.398427,22.2217391 34.7539488,22.1666672 35.0573924,22.0565217 C35.3608359,21.9463763 35.6167211,21.8224645 35.8250554,21.6847826 C36.0605639,21.5287432 36.2643662,21.3497595 36.4364685,21.1478261 C36.4364685,20.6907175 36.4364685,20.3937797 36.4364685,20.2570129 C36.4364685,20.1520728 36.4364685,19.9946627 36.4364685,19.7847826 L34.821784,19.7847826 C34.4413473,19.7847826 34.2511318,19.5920309 34.2511318,19.2065217 L34.2511318,18.8347826 C34.2511318,18.4492734 34.4413473,18.2565217 34.821784,18.2565217 L37.4419033,18.2565217 C37.8132819,18.2565217 37.9989685,18.4492734 37.9989685,18.8347826 C37.9989685,19.0629291 37.9989685,19.3795958 37.9989685,19.7847826 C37.9989685,20.3925629 37.9490241,21.340793 37.89507,21.5555048 C37.7276545,22.2217391 37.0348723,22.8036773 36.6606533,23.0251571 C36.2864342,23.2466369 35.9288423,23.4543687 35.4981464,23.5740666 C35.0674505,23.6937645 34.167449,23.8463768 33.7054902,23.8463768 C33.0623711,23.8463768 32.4554931,23.7247597 31.884838,23.4815217 C31.314183,23.2382838 30.8114707,22.896379 30.3766859,22.4557971 C29.9419011,22.0152152 29.5977016,21.4874427 29.3440772,20.8724638 C29.0904527,20.2574848 28.9636424,19.5782646 28.9636424,18.8347826 Z M43.5269853,14.484058 C43.5269853,14.0985488 43.7126719,13.9057971 44.0840505,13.9057971 L44.7090505,13.9057971 C45.0804292,13.9057971 45.2661158,14.0985488 45.2661158,14.484058 L45.2661158,23.1028986 C45.2661158,23.4884077 45.0804292,23.6811594 44.7090505,23.6811594 L44.0840505,23.6811594 C43.7126719,23.6811594 43.5269853,23.4884077 43.5269853,23.1028986 L43.5269853,14.484058 Z M52.3294587,14.484058 C52.3294587,14.0985488 52.5151452,13.9057971 52.8865239,13.9057971 L57.3022848,13.9057971 C57.6827215,13.9057971 57.872937,14.0985488 57.872937,14.484058 L57.872937,14.8695652 C57.872937,15.2458956 57.6827215,15.434058 57.3022848,15.434058 L54.0685891,15.434058 L54.0685891,18.2014493 L56.7044587,18.2014493 C57.0848954,18.2014493 57.2751109,18.3896116 57.2751109,18.765942 L57.2751109,19.1514493 C57.2751109,19.5369584 57.0848954,19.7297101 56.7044587,19.7297101 L54.0685891,19.7297101 L54.0685891,23.1028986 C54.0685891,23.4884077 53.8829026,23.6811594 53.5115239,23.6811594 L52.8865239,23.6811594 C52.5151452,23.6811594 52.3294587,23.4884077 52.3294587,23.1028986 L52.3294587,14.484058 Z M65.1672582,15.434058 L62.5721495,15.434058 C62.1917128,15.434058 62.0014973,15.2458956 62.0014973,14.8695652 L62.0014973,14.484058 C62.0014973,14.0985488 62.1917128,13.9057971 62.5721495,13.9057971 L69.5014973,13.9057971 C69.872876,13.9057971 70.0585625,14.0985488 70.0585625,14.484058 L70.0585625,14.8695652 C70.0585625,15.2458956 69.872876,15.434058 69.5014973,15.434058 L66.9063886,15.434058 L66.9063886,23.1028986 C66.9063886,23.4884077 66.7161731,23.6811594 66.3357364,23.6811594 L65.7243234,23.6811594 C65.3529447,23.6811594 65.1672582,23.4884077 65.1672582,23.1028986 L65.1672582,15.434058 Z M7.0923913,14.484058 C7.0923913,14.0985488 7.27807785,13.9057971 7.64945652,13.9057971 L10.3804348,13.9057971 C11.1231921,13.9057971 11.7980042,14.0159409 12.4048913,14.2362319 C13.0117784,14.4565228 13.5280776,14.7731863 13.9538043,15.1862319 C14.3795311,15.5992774 14.7101438,16.1086926 14.9456522,16.7144928 C15.1811606,17.3202929 15.298913,18.0086918 15.298913,18.7797101 C15.298913,19.5507285 15.1811606,20.2391274 14.9456522,20.8449275 C14.7101438,21.4507277 14.3795311,21.9647322 13.9538043,22.3869565 C13.5280776,22.8091809 13.0117784,23.1304337 12.4048913,23.3507246 C11.7980042,23.5710156 11.1231921,23.6811594 10.3804348,23.6811594 L7.64945652,23.6811594 C7.27807785,23.6811594 7.0923913,23.4884077 7.0923913,23.1028986 L7.0923913,14.484058 Z M10.2853261,22.1528986 C11.2635918,22.1528986 12.0425696,21.8660657 12.6222826,21.2923913 C13.2019957,20.7187169 13.4918478,19.8811649 13.4918478,18.7797101 C13.4918478,18.2381615 13.4148558,17.758577 13.2608696,17.340942 C13.1068833,16.9233071 12.8894942,16.5745183 12.6086957,16.2945652 C12.3278971,16.0146121 11.9904911,15.8012085 11.5964674,15.6543478 C11.2024437,15.5074872 10.765401,15.434058 10.2853261,15.434058 L8.83152174,15.434058 L8.83152174,22.1528986 L10.2853261,22.1528986 Z" id="Combined-Shape" fill="#FFFFFF"></path>
                    </g>
                </g>
            </g>
        </g>
    </g>
</svg>