<svg width="115" height="99" viewBox="0 0 115 99" fill="none" xmlns="http://www.w3.org/2000/svg">
  <g opacity="0.102493">
    <path fill-rule="evenodd" clip-rule="evenodd" d="M77.0948 42.3674H96.4928V60.8623H92.4166V98.5293H29.8618V60.8623H25.7856V42.3674H45.1836C43.7026 40.6758 42.798 38.4647 42.798 36.0357C42.798 30.73 47.0836 26.4285 52.3698 26.4285C56.2939 26.4285 59.6608 28.7998 61.1392 32.1907C62.6176 28.7998 65.9858 26.4285 69.9086 26.4285C75.1948 26.4285 79.4804 30.73 79.4804 36.0357C79.4804 38.4634 78.5758 40.6758 77.0948 42.3674ZM91.4098 55.7605V47.4692H63.6794V55.7605H91.4098ZM65.4185 36.0357C65.4185 33.5515 67.4323 31.5303 69.9073 31.5303C72.3824 31.5303 74.3961 33.5515 74.3961 36.0357C74.3961 38.5199 72.3824 40.5411 69.9073 40.5411H65.4185V36.0357ZM56.8586 36.0357C56.8586 33.5515 54.8449 31.5303 52.3698 31.5303C49.8948 31.5303 47.881 33.5515 47.881 36.0357C47.881 38.5199 49.8948 40.5411 52.3698 40.5411H56.8586V36.0357ZM30.8686 47.4692H58.5977V55.7605H30.8686V47.4692ZM34.9448 60.8623V93.4288H87.3336V60.8623H63.6807V93.316H58.5977V60.8623H34.9448Z" fill="black"/>
    <path fill-rule="evenodd" clip-rule="evenodd" d="M6.17933 46.1058L0 56.8493H12.3599L6.17933 46.1058Z" fill="black"/>
    <path fill-rule="evenodd" clip-rule="evenodd" d="M109.16 8.71776C107.991 10.5274 108.18 12.2459 108.55 13.6041C108.654 13.9914 108.773 14.3531 108.882 14.675C109.33 16.0036 109.398 16.4076 109.066 16.9219C108.735 17.4349 108.34 17.5375 106.949 17.6683C106.613 17.7004 106.234 17.7389 105.838 17.8004C104.452 18.0146 102.811 18.543 101.642 20.3513C100.472 22.1596 100.661 23.8782 101.031 25.2351C101.137 25.6224 101.256 25.9853 101.363 26.306C101.812 27.6333 101.881 28.0361 101.55 28.5478C101.219 29.0595 100.826 29.1608 99.434 29.2903C99.098 29.3224 98.7197 29.3609 98.3236 29.4212C96.9385 29.634 95.2979 30.1612 94.13 31.9682C93.4872 32.9621 93.7684 34.2908 94.7574 34.9346C95.1177 35.1693 95.5202 35.2809 95.9189 35.2809C96.6191 35.2809 97.3052 34.9372 97.7129 34.3036C98.0438 33.7932 98.4386 33.6919 99.8289 33.5623C101.343 33.42 103.632 33.2071 105.133 30.8832C106.637 28.5593 105.898 26.3739 105.411 24.9286C104.963 23.6012 104.894 23.1985 105.226 22.6855C105.558 22.1712 105.953 22.0699 107.346 21.939C108.86 21.7954 111.149 21.5812 112.651 19.2561C114.154 16.9309 113.417 14.7455 112.931 13.3001C112.483 11.9715 112.415 11.5675 112.747 11.0532C113.389 10.0593 113.108 8.73186 112.117 8.08677C111.126 7.44167 109.802 7.72254 109.16 8.71776Z" fill="black"/>
    <path fill-rule="evenodd" clip-rule="evenodd" d="M111.913 80.5653L110.024 78.6698L106.541 82.1659L103.058 78.6698L101.169 80.5653L99.2808 82.4609L102.764 85.957L99.2808 89.4531L101.169 91.3486L103.058 93.2441L106.541 89.748L110.024 93.2441L111.913 91.3486L113.801 89.4531L110.318 85.957L113.801 82.4609L111.913 80.5653Z" fill="#231F20"/>
    <path fill-rule="evenodd" clip-rule="evenodd" d="M17.0838 79.3893H11.7427V84.3346H6.81689V87.015V89.6955H11.7427V94.6395H17.0838V89.6955H22.0097V87.015V84.3346H17.0838V79.3893Z" fill="#231F20"/>
    <path fill-rule="evenodd" clip-rule="evenodd" d="M85.036 0.470703L81.5528 3.9668L78.0696 0.470703L74.2925 4.26177L77.7757 7.75787L74.2925 11.254L78.0696 15.045L81.5528 11.5489L85.036 15.045L88.8131 11.254L85.3299 7.75787L88.8131 4.26177L85.036 0.470703Z" fill="#231F20"/>
    <path fill-rule="evenodd" clip-rule="evenodd" d="M43.6412 10.2331C45.9813 10.2331 47.8783 8.32905 47.8783 5.98031C47.8783 3.63157 45.9813 1.72754 43.6412 1.72754C41.3011 1.72754 39.4041 3.63157 39.4041 5.98031C39.4041 8.32905 41.3011 10.2331 43.6412 10.2331Z" fill="black"/>
    <path fill-rule="evenodd" clip-rule="evenodd" d="M110.762 50.0598C108.425 50.0598 106.523 51.9682 106.523 54.3139C106.523 56.6596 108.425 58.5679 110.762 58.5679C113.099 58.5679 115 56.6596 115 54.3139C115 51.9682 113.099 50.0598 110.762 50.0598Z" fill="black"/>
    <path fill-rule="evenodd" clip-rule="evenodd" d="M13.2097 23.8568C13.2097 19.6386 16.6303 16.2054 20.8329 16.2054C25.0356 16.2054 28.4562 19.6386 28.4562 23.8568C28.4562 28.0762 25.0356 31.5095 20.8329 31.5095C16.6303 31.5095 13.2097 28.0762 13.2097 23.8568ZM17.4839 23.8568C17.4839 25.7113 18.9865 27.2195 20.8329 27.2195C22.6793 27.2195 24.182 25.7113 24.182 23.8568C24.182 22.0036 22.6793 20.4953 20.8329 20.4953C18.9865 20.4953 17.4839 22.0036 17.4839 23.8568Z" fill="#231F20"/>
  </g>
</svg>
