<svg viewBox="0 0 24 24" xmlns="http://www.w3.org/2000/svg">
  <path d="M15.6312938,10.0455073 L13.3385073,7.75272091 L6.51791389,14.7430521 C6.27059052,14.9965303 6.09500843,15.311135 6.00911517,15.6547081 L5.37436854,18.1936946 L7.87484272,17.568576 C8.23460627,17.4786351 8.56227953,17.2904415 8.82125776,17.0250183 L15.6312938,10.0455073 Z M17.0281265,8.61391293 L18.5944235,7.00863701 L16.301637,4.7158506 L14.7353401,6.32112651 L17.0281265,8.61391293 Z M4.06883017,15.1696368 C4.24061669,14.4824907 4.59178087,13.8532813 5.0864276,13.3463248 L14.8701507,3.31912335 C15.6415419,2.5285353 16.9077762,2.51297315 17.6983643,3.28436431 C17.7071428,3.29296486 17.7071428,3.29296486 17.7158506,3.30163704 L20.008637,5.59442345 C20.7829069,6.36869335 20.790606,7.6216377 20.0259097,8.40536426 L10.252744,18.4217455 C9.7347876,18.9525919 9.07944108,19.3289793 8.35991397,19.508861 L2.62563146,20.9424317 L4.06883017,15.1696368 Z"></path>
</svg>
