<svg xmlns="http://www.w3.org/2000/svg" viewBox="0 0 62 62">
	<path d="M60.3,6.7c-2.5,1.5-5.2,2.5-8.1,3.1c-2.3-2.5-5.6-4-9.3-4c-7,0-12.7,5.7-12.7,12.7c0,1,0.1,2,0.3,2.9C20,20.9,10.6,15.8,4.3,8.1c-1.1,1.9-1.7,4.1-1.7,6.4c0,4.4,2.2,8.3,5.7,10.6c-2.1-0.1-4-0.6-5.8-1.6v0.2c0,6.2,4.4,11.3,10.2,12.5c-1.1,0.3-2.2,0.4-3.4,0.4c-0.8,0-1.6-0.1-2.4-0.2c1.6,5.1,6.3,8.7,11.9,8.8C14.5,48.6,9,50.6,3,50.6c-1,0-2-0.1-3-0.2c5.6,3.6,12.3,5.7,19.5,5.7c23.4,0,36.2-19.4,36.2-36.2l0-1.6c2.5-1.8,4.7-4,6.4-6.6c-2.3,1-4.7,1.7-7.3,2C57.3,12.2,59.3,9.7,60.3,6.7z"/>
</svg>
