<svg xmlns="http://www.w3.org/2000/svg" viewBox="0 0 62 62">
	<path d="M61.177,44.788c-0.074-0.156-0.143-0.287-0.207-0.39c-1.058-1.873-3.081-4.173-6.066-6.9l-0.063-0.062l-0.032-0.029l-0.032-0.032h-0.032c-1.355-1.272-2.213-2.122-2.573-2.56c-0.657-0.834-0.805-1.677-0.445-2.53c0.254-0.645,1.208-2.007,2.859-4.088c0.868-1.103,1.556-1.987,2.064-2.655c3.663-4.785,5.251-7.845,4.764-9.175l-0.189-0.312c-0.127-0.188-0.455-0.358-0.984-0.515c-0.53-0.156-1.207-0.182-2.033-0.078l-9.147,0.063c-0.148-0.053-0.36-0.047-0.635,0.015c-0.275,0.063-0.413,0.094-0.413,0.094l-0.159,0.078l-0.126,0.095c-0.106,0.061-0.222,0.17-0.349,0.327c-0.127,0.156-0.232,0.338-0.317,0.547c-0.996,2.515-2.128,4.857-3.398,7.02c-0.783,1.291-1.503,2.41-2.16,3.357c-0.657,0.946-1.207,1.645-1.651,2.09c-0.445,0.448-0.847,0.808-1.207,1.079c-0.36,0.271-0.635,0.384-0.825,0.342c-0.191-0.04-0.37-0.084-0.541-0.124c-0.296-0.188-0.534-0.443-0.714-0.764c-0.18-0.323-0.302-0.729-0.365-1.22c-0.063-0.487-0.101-0.909-0.111-1.261c-0.01-0.354-0.005-0.856,0.016-1.499c0.022-0.647,0.032-1.083,0.032-1.312c0-0.79,0.016-1.65,0.047-2.575c0.032-0.927,0.058-1.66,0.08-2.201c0.021-0.54,0.031-1.112,0.031-1.716c0-0.603-0.037-1.078-0.111-1.421c-0.073-0.343-0.185-0.676-0.333-0.998c-0.148-0.323-0.366-0.572-0.651-0.749c-0.286-0.178-0.641-0.318-1.064-0.422c-1.122-0.249-2.552-0.385-4.288-0.406c-3.938-0.042-6.468,0.209-7.591,0.75c-0.445,0.228-0.847,0.54-1.207,0.936c-0.382,0.456-0.434,0.708-0.159,0.749c1.271,0.186,2.17,0.634,2.7,1.342l0.19,0.374c0.149,0.271,0.297,0.751,0.445,1.437c0.148,0.686,0.243,1.445,0.285,2.279c0.106,1.517,0.106,2.819,0,3.902c-0.106,1.082-0.206,1.923-0.302,2.528c-0.095,0.603-0.238,1.091-0.429,1.467c-0.19,0.374-0.317,0.603-0.381,0.686c-0.064,0.084-0.117,0.135-0.159,0.158c-0.275,0.103-0.561,0.155-0.857,0.155c-0.297,0-0.657-0.147-1.08-0.437c-0.423-0.291-0.862-0.693-1.318-1.202c-0.455-0.51-0.969-1.221-1.541-2.139c-0.572-0.916-1.164-1.997-1.778-3.246l-0.508-0.905c-0.318-0.584-0.751-1.433-1.302-2.545c-0.551-1.112-1.038-2.19-1.461-3.232c-0.169-0.436-0.423-0.768-0.762-0.998l-0.159-0.094c-0.106-0.083-0.276-0.17-0.508-0.265c-0.233-0.093-0.476-0.161-0.731-0.203l-8.703,0.063c-0.889,0-1.493,0.197-1.81,0.593l-0.127,0.188C0.532,16.347,0.5,16.515,0.5,16.741c0,0.229,0.064,0.512,0.191,0.844c1.271,2.935,2.652,5.764,4.144,8.49c1.493,2.726,2.79,4.921,3.891,6.585c1.101,1.665,2.223,3.234,3.367,4.714c1.143,1.476,1.9,2.423,2.27,2.84c0.371,0.417,0.662,0.728,0.873,0.936l0.794,0.749c0.509,0.5,1.254,1.099,2.239,1.795c0.985,0.697,2.075,1.384,3.271,2.06c1.197,0.678,2.589,1.228,4.177,1.655c1.588,0.427,3.134,0.597,4.637,0.516h3.653c0.74-0.064,1.301-0.291,1.683-0.688l0.126-0.155c0.085-0.125,0.164-0.32,0.238-0.578c0.074-0.259,0.111-0.547,0.111-0.858c-0.022-0.895,0.048-1.701,0.206-2.419c0.159-0.718,0.339-1.259,0.541-1.622c0.202-0.365,0.43-0.673,0.683-0.922c0.254-0.249,0.435-0.399,0.541-0.452c0.105-0.054,0.19-0.088,0.253-0.11c0.508-0.166,1.106-0.005,1.795,0.483c0.688,0.491,1.334,1.094,1.937,1.813c0.603,0.718,1.328,1.523,2.175,2.418c0.847,0.895,1.588,1.562,2.223,1.999l0.635,0.374c0.424,0.249,0.975,0.479,1.652,0.687c0.677,0.207,1.269,0.259,1.778,0.155l8.13-0.124c0.804,0,1.43-0.131,1.874-0.391c0.445-0.258,0.709-0.546,0.794-0.857c0.085-0.313,0.09-0.667,0.016-1.063C61.325,45.22,61.251,44.944,61.177,44.788z"/>
</svg>
