<svg width="115" height="99" fill="none" xmlns="http://www.w3.org/2000/svg"><g opacity=".102" fill-rule="evenodd" clip-rule="evenodd"><path d="M77.095 42.367h19.398v18.495h-4.076V98.53H29.862V60.862h-4.076V42.367h19.398a9.578 9.578 0 0 1-2.386-6.331c0-5.306 4.286-9.608 9.572-9.608 3.924 0 7.29 2.372 8.77 5.763 1.478-3.391 4.846-5.763 8.769-5.763 5.286 0 9.571 4.302 9.571 9.608a9.58 9.58 0 0 1-2.385 6.331zM91.41 55.761v-8.292H63.68v8.291h27.73zM65.418 36.035c0-2.485 2.014-4.506 4.49-4.506 2.474 0 4.488 2.021 4.488 4.506 0 2.484-2.014 4.505-4.489 4.505h-4.489v-4.505zm-8.56 0c0-2.485-2.013-4.506-4.488-4.506-2.475 0-4.489 2.021-4.489 4.506 0 2.484 2.014 4.505 4.489 4.505h4.489v-4.505zm-25.99 11.433h27.73v8.291h-27.73v-8.29zm4.077 13.393V93.43h52.389V60.862H63.68v32.454h-5.083V60.862H34.945zM6.18 46.106L0 56.849h12.36L6.18 46.106zM109.16 8.718c-1.169 1.81-.98 3.528-.61 4.886.104.387.223.75.332 1.071.448 1.329.516 1.733.184 2.247-.331.513-.726.616-2.117.746-.336.032-.715.07-1.111.132-1.386.215-3.027.743-4.196 2.551-1.17 1.809-.981 3.527-.611 4.884.106.387.225.75.332 1.071.449 1.327.518 1.73.187 2.242s-.724.613-2.116.742a19.1 19.1 0 0 0-1.11.131c-1.385.213-3.026.74-4.194 2.547a2.15 2.15 0 0 0 .627 2.967 2.128 2.128 0 0 0 2.956-.631c.33-.51.726-.612 2.116-.742 1.514-.142 3.803-.355 5.304-2.679 1.504-2.324.765-4.51.278-5.954-.448-1.328-.517-1.73-.185-2.243.332-.515.727-.616 2.12-.747 1.514-.144 3.803-.358 5.305-2.683 1.503-2.325.766-4.51.28-5.956-.448-1.329-.516-1.732-.184-2.247a2.149 2.149 0 0 0-.63-2.966 2.132 2.132 0 0 0-2.957.63z" fill="#000"/><path d="M111.913 80.565l-1.889-1.895-3.483 3.496-3.483-3.496-1.889 1.895-1.888 1.896 3.483 3.496-3.483 3.496 1.888 1.896 1.889 1.895 3.483-3.496 3.483 3.496 1.889-1.895 1.888-1.896-3.483-3.496 3.483-3.496-1.888-1.896zM17.084 79.39h-5.341v4.945H6.817v5.36h4.926v4.945h5.34v-4.945h4.927v-5.36h-4.926v-4.946zM85.036.47l-3.483 3.497L78.07.47l-3.777 3.79 3.483 3.497-3.483 3.496 3.777 3.791 3.483-3.496 3.483 3.496 3.777-3.791-3.483-3.496 3.483-3.496L85.036.47z" fill="#231F20"/><path d="M43.641 10.233a4.245 4.245 0 0 0 4.237-4.253 4.245 4.245 0 0 0-4.237-4.252 4.245 4.245 0 0 0-4.237 4.252 4.245 4.245 0 0 0 4.237 4.253zm67.121 39.827c-2.337 0-4.239 1.908-4.239 4.254 0 2.346 1.902 4.254 4.239 4.254 2.337 0 4.238-1.908 4.238-4.254 0-2.346-1.901-4.254-4.238-4.254z" fill="#000"/><path d="M13.21 23.857c0-4.218 3.42-7.652 7.623-7.652s7.623 3.434 7.623 7.652c0 4.22-3.42 7.652-7.623 7.652s-7.623-3.433-7.623-7.652zm4.274 0a3.36 3.36 0 0 0 3.349 3.363 3.36 3.36 0 0 0 3.349-3.363 3.36 3.36 0 0 0-3.35-3.362 3.36 3.36 0 0 0-3.348 3.362z" fill="#231F20"/></g></svg>