<svg width="140" height="41" xmlns="http://www.w3.org/2000/svg"><g fill="none"><path d="M52.896 20.48c0 11.22-11.804 20.316-26.365 20.316C11.97 40.796.166 31.7.166 20.48.166 9.26 11.97.162 26.53.162s26.365 9.097 26.365 20.317z" fill="#80BB3D"/><path d="M49.95 20.442c-.014-9.6-10.512-17.366-23.446-17.347-3.506.006-6.83.583-9.815 1.612-2.532-.31-5.02.68-5.02.68s1.815 2.92 4.54 3.988c1.916.75 4.078.12 4.457-.237 0 0-.744-1.512-3.146-2.57-.93-.41-2.215-.779-3.64-.979.96.082 1.775-.021 3.714.594 2.7.856 3.413 2.461 3.413 2.461.155-1.512-.862-2.58-1.863-3.152a29.48 29.48 0 0 1 7.361-.93c12.121-.019 21.958 7.093 21.971 15.884.005 2.72-.933 5.284-2.59 7.527a21.662 21.662 0 0 0-2.43-2.09c.595-3.543-2.022-6.835-4.87-8.46 1.306-4.136-2.705-8.36-9.973-8.512-1.082-.009-2.562.047-3.526.15l.404-2.555h-.576c-2.016.017-2.766 1.303-2.984 1.808l-.779 1.492c-4.52 1.25-7 3.385-7.222 3.576-.523.45-.415.644.517.26 1.662-.685 3.597-1.3 5.626-1.768l-6.099 11.174c-3.263-.371-6.666.01-8.388 2.212-.648-1.5-1-3.093-1.002-4.748-.008-5.092 3.282-9.63 8.408-12.552-1.297-.842-2.472-.158-2.84.106l-.021.014c-4.339 3.162-7.027 7.565-7.02 12.433.004 2.275.597 4.447 1.67 6.437a2.723 2.723 0 0 0 .559 2.274c.824 1.049 2.475 1.513 4.405.84 2.606-.906 4.609-3.75 5.245-4.782-1.881-.306-2.626.375-2.891.728-.768 1.02-1.897 2.164-3.08 2.67-2.42 1.033-3.987-1.148-2.075-2.903 1.294-1.19 3.863-1.437 6.179-1.146h.056c2.928.385 5.185 1.267 5.675 1.466-.45 2.628-.765 4.308-.765 4.308l.862.011c2.817-.001 3.064-2.096 3.064-2.096.004.004.145-.737.145-.737a151.917 151.917 0 0 1 5.223 2.689c.661.362 1.617.341 1.765-.616l1.095-7.416c2.864-.166 5.678-1.277 7.179-2.9 1.307 1.021 2.516 2.649 2.747 4.617-1.6-.691-3.408-1.105-5.265-.818-4.3.663-5.805 5.068-3.44 7.568 1.775 1.875 4.32 2.079 7.058 1.049a7.985 7.985 0 0 0 3.84-3.116 5.87 5.87 0 0 0-1.034-.842c-1.208-.74-2.104.099-2.364.393-.767.956-1.816 1.654-2.914 1.922-5.003 1.216-5.474-5.307-.346-5.503 1.622-.062 3.05.627 4.307 1.534v.002c1.298.971 3.08 2.77 3.97 3.387 1.897 1.316 3.745.736 3.745.736s-.32-.524-.85-1.192c1.96-2.545 3.08-5.494 3.075-8.635zM19.208 24.11c-.972-.31-2.791-.687-3.17-.762l4.808-8.836c-.501 2.944-1.124 6.583-1.638 9.598zm11.266-3.431l.443-2.999c-3.322.026-3.8 2.288-3.854 2.645-1.59-.763-.24-2.407 1.996-2.829 2.475-.467 4.825.084 6.242.664-.797 1.46-2.558 2.33-4.827 2.519zm5.403-4.297c-1.259-.329-2.937-.626-4.688-.564l.588-3.982c-3.54-.595-3.733 1.776-3.733 1.776l-.423 2.854c-3.287 1.268-3.6 4.19-.79 5.327a718.377 718.377 0 0 1-.73 4.877 92.202 92.202 0 0 0-3.57-1.445L24.764 11.1c9.566-.987 11.435 3.399 11.113 5.282zM42.61 31.3l-.004.003c-3.984 3.12-9.752 5.084-16.052 5.094-6.256.01-11.904-1.9-15.907-4.922-.395-.298-1.398-.975-2.658-.365 4.29 4.115 11.013 6.761 18.569 6.75 7.582-.012 14.319-2.697 18.593-6.85-1.206-.595-2.258.08-2.54.29z" fill="#FFF"/><path d="M108.034 4.22h2.31l-4.027 10.091c-.148.376-.304.729-.46 1.06l-.81 1.704c-.692 1.43-2.02 2.217-3.763 2.217-1.038 0-1.962-.098-2.858-.342l.368-2.739 1.528.035c.672 0 1.45-.114 1.83-.96 0 0 .063-.15.148-.346-.233-.497-3.074-6.554-5.03-10.72h4.256l2.638 6.092c.134-.395.786-2.313 1.483-4.37.49-1.172 1.01-1.722 2.387-1.722zM92.14 9.535c3.982 0 5.764 2.395 5.764 4.768 0 2.2-1.433 4.768-5.467 4.768H85.86V6.493c0-1.225.768-2.27 2.436-2.304h8.088V5.49l-.003-.005c0 1.103-.631 1.717-1.752 1.766H89.89v2.283h2.249zm-1.108 6.473c2.354 0 2.626-.997 2.626-1.747 0-.916-.748-1.665-2.137-1.662h-1.63v3.41h1.14zm38.131-2.738h3.865c-.195-.465-1.71-4.103-2.025-4.86l-1.84 4.86zm-9.54-1.787c1.002.541 1.947 1.703 2.81 3.472l1.05 2.14 4.482-11.082c.505-1.246 1.015-1.825 2.432-1.825h2.776l6.634 14.883h-4.351l-1.192-2.865h-6.215c-.09.241-1.085 2.865-1.085 2.865h-6.998l-1.546-3.346c-.856-1.863-1.952-2.808-3.262-2.808h-.602v6.154h-4.032V6.435c.022-1.2.79-2.213 2.431-2.247h1.6v5.666h.837c.952 0 1.572-.453 2.071-1.517l.937-1.974c.693-1.43 2.03-2.217 3.764-2.217.41 0 .842.041 1.354.13l.254.042-.406 3.018h-.096c-.673 0-1.412.114-1.79.96l-.534 1.21c-.351.793-.87 1.558-1.323 1.977zm-37.32-.376c1.209.702 2.336 1.716 2.336 3.657 0 2.835-2.365 4.353-6.486 4.46-.666.017-1.51-.074-1.51-.074-1.175-.123-1.768-1.187-2.034-1.737a11.09 11.09 0 0 1-.658-1.814c1.035.24 2.187.373 3.273.373 1.982.035 2.988-.505 2.988-1.503 0-1.003-.88-1.376-3.242-1.376h-1.177v-3.041h1.41c2.924 0 2.924-1.1 2.924-1.46 0-.797-.955-1.46-3.157-1.272-1.068.09-3.003.667-3.003.667l-.347-3.151c1.878-.51 3.488-.768 4.893-.768 3.005 0 6.04 1.158 6.04 3.744 0 1.673-1.227 2.808-2.25 3.295zM67.639 4.189l6.635 14.882h-4.352l-1.192-2.865h-6.215c-.09.242-1.086 2.865-1.086 2.865H57.15l5.357-13.24c.481-1.116 1.009-1.642 2.352-1.642h2.78zM63.63 13.27h3.864L65.47 8.41l-1.84 4.86zm7.617 15.193c1.75.614 2.79 1.985 2.79 3.762 0 1.045-.385 4.45-5.338 4.45h-7.275V23.91c.075-1.142.838-2.083 2.42-2.116h4.066c3.449 0 5.02 1.988 5.02 3.834 0 1.138-.622 2.17-1.683 2.836zm-5.792-3.608v2.688h1.69c1.215 0 1.646-.735 1.646-1.365 0-.61-.43-1.323-1.646-1.323h-1.69zm1.839 8.757c2.09 0 2.499-.578 2.499-1.577 0-1.054-1.038-1.43-2.009-1.43h-2.329v3.007h1.839zm56.392-11.795l6.635 14.882h-4.351s-1.096-2.634-1.194-2.865h-6.213l-1.087 2.865h-4.279l5.357-13.24c.481-1.116 1.009-1.642 2.352-1.642h2.78zm-4.01 9.081h3.866l-2.025-4.86-1.84 4.86zm-19.561-9.081h2.31l-4.027 10.091c-.149.376-.304.729-.46 1.06l-.81 1.704c-.693 1.43-2.021 2.217-3.763 2.217-1.038 0-1.962-.098-2.859-.342l.368-2.738 1.528.034c.673 0 1.45-.114 1.831-.96 0 0 .063-.15.148-.346-.233-.496-3.431-6.658-5.352-10.75h4.18c1.105 2.55 2.824 5.63 3.036 6.122.133-.395.786-2.313 1.482-4.37.491-1.172 1.011-1.722 2.388-1.722zm-12.007 3.147h-.096c-.673 0-1.411.114-1.791.959l-.533 1.21c-.351.794-.87 1.558-1.324 1.977 1.003.542 1.948 1.704 2.812 3.473l2.019 4.116h-4.487l-1.546-3.346c-.855-1.863-1.952-2.808-3.262-2.808h-.603V36.7h-4.032V24.092c.012-1.213.779-2.24 2.433-2.275h1.599v5.665h.837c.953 0 1.572-.453 2.07-1.516l.938-1.975c.693-1.43 2.03-2.216 3.763-2.216.411 0 .843.04 1.356.13l.253.041-.406 3.018zm24.866 9.87c-.34.915-.993 1.668-2.043 1.89-.602.128-1.083.147-1.76.147-3.141 0-5.039-1.381-6.078-2.54-1.209-1.347-1.93-3.18-1.93-4.904 0-2.184.823-4.177 2.317-5.612 1.486-1.428 3.547-2.214 5.805-2.214 1.37 0 2.77.309 4.494.996v3.697l-.156-.09c-1.605-.934-2.91-1.332-4.367-1.332-2.68 0-4.218 2.063-4.218 4.382 0 2.371 1.485 4.34 4.302 4.34 1.861.042 3.168-.524 4.26-.95 0-.004-.285 1.275-.626 2.19z" fill="#4B721D"/></g></svg>