<svg width="75" height="38" xmlns="http://www.w3.org/2000/svg"><g fill="none" fill-rule="evenodd"><path d="M28.17 7h44.66A2.17 2.17 0 0 1 75 9.17v26.66A2.17 2.17 0 0 1 72.83 38H28.17A2.17 2.17 0 0 1 26 35.83V9.17A2.17 2.17 0 0 1 28.17 7z" fill="#4740E3"/><rect fill="#00E0B4" width="49" height="31" rx="2.17"/><path d="M28.17 7H49v21.83A2.17 2.17 0 0 1 46.83 31H26V9.17A2.17 2.17 0 0 1 28.17 7z" fill="#00B8C0" fill-rule="nonzero"/><path d="M20.732 14.484c0-.385.186-.578.557-.578h.625c.371 0 .557.193.557.578v8.619c0 .385-.186.578-.557.578h-.625c-.371 0-.557-.193-.557-.578v-8.619zm8.232 4.35c0-.724.124-1.399.373-2.023a4.868 4.868 0 0 1 1.04-1.618c.444-.454.969-.81 1.576-1.067a5.07 5.07 0 0 1 1.997-.385 5.964 5.964 0 0 1 2.71.633c.195.1.343.188.442.262.281.22.322.486.123.798l-.245.386c-.1.156-.213.245-.34.268-.127.023-.276-.016-.448-.117a5.333 5.333 0 0 0-.842-.4c-.354-.137-.789-.206-1.305-.206-.525 0-.992.09-1.4.269a2.948 2.948 0 0 0-1.025.73 3.165 3.165 0 0 0-.632 1.08 3.922 3.922 0 0 0-.217 1.308c0 .514.083.985.251 1.411.168.427.396.792.686 1.095a3.123 3.123 0 0 0 2.283.964c.407 0 .763-.055 1.066-.165.304-.11.56-.235.768-.372.236-.156.44-.335.611-.537v-1.363h-1.614c-.38 0-.57-.193-.57-.578v-.372c0-.386.19-.578.57-.578h2.62c.371 0 .557.192.557.578v.95c0 .608-.05 1.556-.104 1.77-.167.667-.86 1.249-1.234 1.47-.375.222-.732.43-1.163.55-.43.119-1.33.271-1.793.271-.643 0-1.25-.121-1.82-.364a4.673 4.673 0 0 1-1.508-1.026 4.867 4.867 0 0 1-1.033-1.584 5.295 5.295 0 0 1-.38-2.037zm14.563-4.35c0-.385.186-.578.557-.578h.625c.371 0 .557.193.557.578v8.619c0 .385-.186.578-.557.578h-.625c-.371 0-.557-.193-.557-.578v-8.619zm8.802 0c0-.385.186-.578.558-.578h4.415c.38 0 .57.193.57.578v.386c0 .376-.19.564-.57.564H54.07v2.767h2.635c.38 0 .571.189.571.565v.385c0 .386-.19.579-.57.579H54.07v3.373c0 .385-.186.578-.557.578h-.625c-.372 0-.558-.193-.558-.578v-8.619zm12.838.95h-2.595c-.38 0-.57-.188-.57-.564v-.386c0-.385.19-.578.57-.578h6.93c.37 0 .557.193.557.578v.386c0 .376-.186.564-.558.564h-2.595v7.669c0 .385-.19.578-.57.578h-.612c-.371 0-.557-.193-.557-.578v-7.669zm-58.075-.95c0-.385.186-.578.557-.578h2.731c.743 0 1.418.11 2.025.33.607.22 1.123.537 1.549.95.426.413.756.923.992 1.528.235.606.353 1.295.353 2.066 0 .77-.118 1.46-.353 2.065a4.368 4.368 0 0 1-.992 1.542 4.2 4.2 0 0 1-1.55.964c-.606.22-1.28.33-2.024.33H7.65c-.372 0-.558-.193-.558-.578v-8.619zm3.193 7.669c.979 0 1.758-.287 2.337-.86.58-.574.87-1.412.87-2.513 0-.542-.077-1.021-.231-1.44a2.84 2.84 0 0 0-.652-1.045 2.796 2.796 0 0 0-1.013-.64 3.73 3.73 0 0 0-1.31-.22H8.831v6.718h1.453z" fill="#FFF"/></g></svg>